<svg width="158" height="35" viewBox="0 0 158 35" fill="none" xmlns="http://www.w3.org/2000/svg">
<g filter="url(#filter0_d_1_386)">
<path d="M4.166 27V0.399998H13.134V27H4.166ZM21.2512 27V0.399998H28.6232L39.2632 17.766H35.3872L45.7232 0.399998H53.0952L53.1712 27H45.0012L44.9252 12.712H46.2172L39.1492 24.606H35.1972L27.8252 12.712H29.4212V27H21.2512ZM61.307 27V0.399998H74.113C76.5957 0.399998 78.7363 0.805332 80.535 1.616C82.359 2.42667 83.765 3.592 84.753 5.112C85.741 6.60667 86.235 8.38 86.235 10.432C86.235 12.484 85.741 14.2573 84.753 15.752C83.765 17.2213 82.359 18.3487 80.535 19.134C78.7363 19.9193 76.5957 20.312 74.113 20.312H66.285L70.275 16.626V27H61.307ZM77.229 27L70.693 17.31H80.193L86.805 27H77.229ZM70.275 17.614L66.285 13.548H73.543C74.7843 13.548 75.6963 13.2693 76.279 12.712C76.887 12.1547 77.191 11.3947 77.191 10.432C77.191 9.46933 76.887 8.70933 76.279 8.152C75.6963 7.59467 74.7843 7.316 73.543 7.316H66.285L70.275 3.25V17.614ZM93.4215 27V0.399998H106.531C109.495 0.399998 112.105 0.944665 114.359 2.034C116.614 3.098 118.375 4.618 119.641 6.594C120.908 8.57 121.541 10.926 121.541 13.662C121.541 16.4233 120.908 18.8047 119.641 20.806C118.375 22.782 116.614 24.3147 114.359 25.404C112.105 26.468 109.495 27 106.531 27H93.4215ZM102.389 20.008H106.151C107.418 20.008 108.52 19.7673 109.457 19.286C110.42 18.8047 111.167 18.0953 111.699 17.158C112.231 16.1953 112.497 15.03 112.497 13.662C112.497 12.3193 112.231 11.1793 111.699 10.242C111.167 9.30467 110.42 8.59533 109.457 8.114C108.52 7.63267 107.418 7.392 106.151 7.392H102.389V20.008ZM128.616 27V0.399998H141.422C143.905 0.399998 146.045 0.805332 147.844 1.616C149.668 2.42667 151.074 3.592 152.062 5.112C153.05 6.60667 153.544 8.38 153.544 10.432C153.544 12.484 153.05 14.2573 152.062 15.752C151.074 17.2467 149.668 18.412 147.844 19.248C146.045 20.0587 143.905 20.464 141.422 20.464H133.594L137.584 16.626V27H128.616ZM137.584 17.614L133.594 13.548H140.852C142.093 13.548 143.005 13.2693 143.588 12.712C144.196 12.1547 144.5 11.3947 144.5 10.432C144.5 9.46933 144.196 8.70933 143.588 8.152C143.005 7.59467 142.093 7.316 140.852 7.316H133.594L137.584 3.25V17.614Z" fill="#206BC4"/>
</g>
<defs>
<filter id="filter0_d_1_386" x="0.166016" y="0.399994" width="157.378" height="34.6" filterUnits="userSpaceOnUse" color-interpolation-filters="sRGB">
<feFlood flood-opacity="0" result="BackgroundImageFix"/>
<feColorMatrix in="SourceAlpha" type="matrix" values="0 0 0 0 0 0 0 0 0 0 0 0 0 0 0 0 0 0 127 0" result="hardAlpha"/>
<feOffset dy="4"/>
<feGaussianBlur stdDeviation="2"/>
<feComposite in2="hardAlpha" operator="out"/>
<feColorMatrix type="matrix" values="0 0 0 0 0 0 0 0 0 0 0 0 0 0 0 0 0 0 0.1 0"/>
<feBlend mode="normal" in2="BackgroundImageFix" result="effect1_dropShadow_1_386"/>
<feBlend mode="normal" in="SourceGraphic" in2="effect1_dropShadow_1_386" result="shape"/>
</filter>
</defs>
</svg>
