<svg width="158" height="28" viewBox="0 0 158 28" fill="none" xmlns="http://www.w3.org/2000/svg">
<path d="M0.28 28V-1.90735e-06H9.72V28H0.28ZM18.2644 28V-1.90735e-06H26.0244L37.2244 18.28H33.1444L44.0244 -1.90735e-06H51.7844L51.8644 28H43.2644L43.1844 12.96H44.5444L37.1044 25.48H32.9444L25.1844 12.96H26.8644V28H18.2644ZM60.4284 28V-1.90735e-06H73.9084C76.5218 -1.90735e-06 78.7751 0.426665 80.6684 1.28C82.5884 2.13333 84.0684 3.36 85.1084 4.96C86.1484 6.53333 86.6684 8.4 86.6684 10.56C86.6684 12.72 86.1484 14.5867 85.1084 16.16C84.0684 17.7067 82.5884 18.8933 80.6684 19.72C78.7751 20.5467 76.5218 20.96 73.9084 20.96H65.6684L69.8684 17.08V28H60.4284ZM77.1884 28L70.3084 17.8H80.3084L87.2684 28H77.1884ZM69.8684 18.12L65.6684 13.84H73.3084C74.6151 13.84 75.5751 13.5467 76.1884 12.96C76.8284 12.3733 77.1484 11.5733 77.1484 10.56C77.1484 9.54667 76.8284 8.74667 76.1884 8.16C75.5751 7.57333 74.6151 7.28 73.3084 7.28H65.6684L69.8684 3V18.12ZM94.2331 28V-1.90735e-06H108.033C111.153 -1.90735e-06 113.9 0.573332 116.273 1.72C118.646 2.84 120.5 4.44 121.833 6.52C123.166 8.6 123.833 11.08 123.833 13.96C123.833 16.8667 123.166 19.3733 121.833 21.48C120.5 23.56 118.646 25.1733 116.273 26.32C113.9 27.44 111.153 28 108.033 28H94.2331ZM103.673 20.64H107.633C108.966 20.64 110.126 20.3867 111.113 19.88C112.126 19.3733 112.913 18.6267 113.473 17.64C114.033 16.6267 114.313 15.4 114.313 13.96C114.313 12.5467 114.033 11.3467 113.473 10.36C112.913 9.37333 112.126 8.62667 111.113 8.12C110.126 7.61333 108.966 7.36 107.633 7.36H103.673V20.64ZM131.28 28V-1.90735e-06H144.76C147.373 -1.90735e-06 149.627 0.426665 151.52 1.28C153.44 2.13333 154.92 3.36 155.96 4.96C157 6.53333 157.52 8.4 157.52 10.56C157.52 12.72 157 14.5867 155.96 16.16C154.92 17.7333 153.44 18.96 151.52 19.84C149.627 20.6933 147.373 21.12 144.76 21.12H136.52L140.72 17.08V28H131.28ZM140.72 18.12L136.52 13.84H144.16C145.467 13.84 146.427 13.5467 147.04 12.96C147.68 12.3733 148 11.5733 148 10.56C148 9.54667 147.68 8.74667 147.04 8.16C146.427 7.57333 145.467 7.28 144.16 7.28H136.52L140.72 3V18.12Z" fill="#1F1F1F"/>
</svg>
