<svg width="228" height="60" viewBox="0 0 228 60" fill="none" xmlns="http://www.w3.org/2000/svg">
<g filter="url(#filter0_d_21_94)">
<path fill-rule="evenodd" clip-rule="evenodd" d="M30 0C23.1068 0.00779441 16.4981 2.74958 11.6238 7.62383C6.74958 12.4981 4.00779 19.1068 4 26V48.3742C4.0011 49.3355 4.38348 50.2571 5.06324 50.9369C5.743 51.6166 6.66463 51.9989 7.62594 52H30C36.8956 52 43.5088 49.2607 48.3848 44.3848C53.2607 39.5088 56 32.8956 56 26C56 19.1044 53.2607 12.4912 48.3848 7.61522C43.5088 2.73928 36.8956 0 30 0ZM14.4 26.7C14.4 25.5954 15.2955 24.7 16.4 24.7H21.5C22.6046 24.7 23.5 25.5954 23.5 26.7V34.4C23.5 35.5046 22.6046 36.4 21.5 36.4H16.4C15.2955 36.4 14.4 35.5046 14.4 34.4V26.7ZM28.1 27.3C26.9954 27.3 26.1 28.1954 26.1 29.3V34.4C26.1 35.5046 26.9954 36.4 28.1 36.4H31.9C33.0045 36.4 33.9 35.5046 33.9 34.4V29.3C33.9 28.1954 33.0045 27.3 31.9 27.3H28.1ZM36.5 22.8C36.5 21.6954 37.3954 20.8 38.5 20.8H43.6C44.7046 20.8 45.6 21.6954 45.6 22.8V34.4C45.6 35.5046 44.7046 36.4 43.6 36.4H38.5C37.3954 36.4 36.5 35.5046 36.5 34.4V22.8Z" fill="#206BC4"/>
</g>
<path d="M77.166 40V13.4H86.134V40H77.166ZM94.2512 40V13.4H101.623L112.263 30.766H108.387L118.723 13.4H126.095L126.171 40H118.001L117.925 25.712H119.217L112.149 37.606H108.197L100.825 25.712H102.421V40H94.2512ZM134.307 40V13.4H147.113C149.596 13.4 151.736 13.8053 153.535 14.616C155.359 15.4267 156.765 16.592 157.753 18.112C158.741 19.6067 159.235 21.38 159.235 23.432C159.235 25.484 158.741 27.2573 157.753 28.752C156.765 30.2213 155.359 31.3487 153.535 32.134C151.736 32.9193 149.596 33.312 147.113 33.312H139.285L143.275 29.626V40H134.307ZM150.229 40L143.693 30.31H153.193L159.805 40H150.229ZM143.275 30.614L139.285 26.548H146.543C147.784 26.548 148.696 26.2693 149.279 25.712C149.887 25.1547 150.191 24.3947 150.191 23.432C150.191 22.4693 149.887 21.7093 149.279 21.152C148.696 20.5947 147.784 20.316 146.543 20.316H139.285L143.275 16.25V30.614ZM166.421 40V13.4H179.531C182.495 13.4 185.105 13.9447 187.359 15.034C189.614 16.098 191.375 17.618 192.641 19.594C193.908 21.57 194.541 23.926 194.541 26.662C194.541 29.4233 193.908 31.8047 192.641 33.806C191.375 35.782 189.614 37.3147 187.359 38.404C185.105 39.468 182.495 40 179.531 40H166.421ZM175.389 33.008H179.151C180.418 33.008 181.52 32.7673 182.457 32.286C183.42 31.8047 184.167 31.0953 184.699 30.158C185.231 29.1953 185.497 28.03 185.497 26.662C185.497 25.3193 185.231 24.1793 184.699 23.242C184.167 22.3047 183.42 21.5953 182.457 21.114C181.52 20.6327 180.418 20.392 179.151 20.392H175.389V33.008ZM201.616 40V13.4H214.422C216.905 13.4 219.045 13.8053 220.844 14.616C222.668 15.4267 224.074 16.592 225.062 18.112C226.05 19.6067 226.544 21.38 226.544 23.432C226.544 25.484 226.05 27.2573 225.062 28.752C224.074 30.2467 222.668 31.412 220.844 32.248C219.045 33.0587 216.905 33.464 214.422 33.464H206.594L210.584 29.626V40H201.616ZM210.584 30.614L206.594 26.548H213.852C215.093 26.548 216.005 26.2693 216.588 25.712C217.196 25.1547 217.5 24.3947 217.5 23.432C217.5 22.4693 217.196 21.7093 216.588 21.152C216.005 20.5947 215.093 20.316 213.852 20.316H206.594L210.584 16.25V30.614Z" fill="#4A4A4A"/>
<defs>
<filter id="filter0_d_21_94" x="0" y="0" width="60" height="60" filterUnits="userSpaceOnUse" color-interpolation-filters="sRGB">
<feFlood flood-opacity="0" result="BackgroundImageFix"/>
<feColorMatrix in="SourceAlpha" type="matrix" values="0 0 0 0 0 0 0 0 0 0 0 0 0 0 0 0 0 0 127 0" result="hardAlpha"/>
<feOffset dy="4"/>
<feGaussianBlur stdDeviation="2"/>
<feComposite in2="hardAlpha" operator="out"/>
<feColorMatrix type="matrix" values="0 0 0 0 0 0 0 0 0 0 0 0 0 0 0 0 0 0 0.15 0"/>
<feBlend mode="normal" in2="BackgroundImageFix" result="effect1_dropShadow_21_94"/>
<feBlend mode="normal" in="SourceGraphic" in2="effect1_dropShadow_21_94" result="shape"/>
</filter>
</defs>
</svg>
